<?xml version="1.0" encoding="UTF-8" standalone="no"?>
<!-- Created with Inkscape (http://www.inkscape.org/) -->

<svg
   xmlns:dc="http://purl.org/dc/elements/1.1/"
   xmlns:cc="http://creativecommons.org/ns#"
   xmlns:rdf="http://www.w3.org/1999/02/22-rdf-syntax-ns#"
   xmlns:svg="http://www.w3.org/2000/svg"
   xmlns="http://www.w3.org/2000/svg"
   xmlns:sodipodi="http://sodipodi.sourceforge.net/DTD/sodipodi-0.dtd"
   xmlns:inkscape="http://www.inkscape.org/namespaces/inkscape"
   width="550"
   height="200"
   viewBox="0 0 145.52085 52.916665"
   version="1.1"
   id="svg8"
   inkscape:version="0.92.3 (2405546, 2018-03-11)"
   sodipodi:docname="60-ego_v0.2.svg">
  <defs
     id="defs2" />
  <sodipodi:namedview
     id="base"
     pagecolor="#ffffff"
     bordercolor="#666666"
     borderopacity="1.0"
     inkscape:pageopacity="0.0"
     inkscape:pageshadow="2"
     inkscape:zoom="0.49497475"
     inkscape:cx="36.908857"
     inkscape:cy="354.99194"
     inkscape:document-units="mm"
     inkscape:current-layer="layer2"
     showgrid="false"
     units="px"
     inkscape:window-width="1920"
     inkscape:window-height="986"
     inkscape:window-x="2509"
     inkscape:window-y="-11"
     inkscape:window-maximized="1" />
  <metadata
     id="metadata5">
    <rdf:RDF>
      <cc:Work
         rdf:about="">
        <dc:format>image/svg+xml</dc:format>
        <dc:type
           rdf:resource="http://purl.org/dc/dcmitype/StillImage" />
        <dc:title></dc:title>
      </cc:Work>
    </rdf:RDF>
  </metadata>
  <g
     inkscape:groupmode="layer"
     id="layer2"
     inkscape:label="background"
     transform="translate(0,-157.08334)">
    <rect
       style="opacity:0.96799999;fill:#ffea00;fill-opacity:1;stroke:#000000;stroke-width:0.5;stroke-miterlimit:4;stroke-dasharray:none;stroke-dashoffset:0;stroke-opacity:1"
       id="rect885"
       width="133.61458"
       height="36.474705"
       x="6.7879658"
       y="166.21407"
       rx="18.237352"
       ry="18.237352" />
  </g>
  <g
     inkscape:label="text"
     inkscape:groupmode="layer"
     id="layer1"
     transform="translate(0,-244.08334)">
    <path
       style="fill:#ff0000;stroke:#000000;stroke-width:0.5;stroke-miterlimit:4;stroke-dasharray:none;stroke-opacity:1"
       d="m 69.527176,275.68119 c -2.80195,-3.1869 -5.837801,-6.63816 -6.746343,-7.66948 l -1.651894,-1.87512 2.398357,-2.40156 2.39836,-2.40155 8.676636,6.3e-4 8.67665,6.3e-4 2.44332,2.39534 2.44332,2.39533 -0.51373,0.58309 c -0.28255,0.3207 -3.31961,3.77448 -6.74902,7.67507 -3.42941,3.90059 -6.24562,7.09198 -6.25825,7.09198 -0.0126,0 -2.31546,-2.60746 -5.117406,-5.79436 z m 6.939586,1.14064 c 0.9578,-1.0871 1.75869,-2.00058 1.77977,-2.02997 0.0362,-0.0504 0.0319,-0.0501 -0.0754,0.005 -0.31773,0.1621 -1.00108,0.28606 -1.89259,0.34334 -0.96836,0.0622 -2.88282,0.002 -4.45814,-0.13905 -0.29058,-0.0261 -0.5251,-0.0388 -0.52116,-0.0282 0.0208,0.056 3.38543,3.85096 3.40405,3.83945 0.0121,-0.008 0.80571,-0.90307 1.7635,-1.99016 z m 0.0371,-3.12136 c 0.76437,-0.0735 1.48764,-0.21405 2.03512,-0.39544 0.34197,-0.1133 0.7788,-0.31651 0.95098,-0.44238 0.90487,-0.66153 0.55806,-1.26958 -0.9108,-1.59687 -1.01455,-0.22606 -2.27832,-0.31939 -5.75158,-0.42474 -2.47012,-0.0749 -3.535306,-0.16578 -4.661636,-0.39758 -0.3481,-0.0716 -0.94487,-0.24006 -1.05003,-0.29634 -0.0297,-0.0159 -0.0596,-0.0234 -0.0664,-0.0166 -0.0157,0.0157 2.53035,2.91742 2.5622,2.92003 0.0131,0.001 0.12277,-0.0899 0.24379,-0.20229 0.270856,-0.25142 0.595626,-0.45071 0.921636,-0.56553 0.2386,-0.084 0.26427,-0.0872 0.71234,-0.0868 0.42658,3.9e-4 0.48567,0.007 0.71835,0.0781 0.65613,0.20097 1.48687,0.73628 2.00012,1.28882 0.0992,0.1068 0.17001,0.15731 0.23946,0.17082 0.14389,0.028 1.67757,0.003 2.05646,-0.0332 z m 7.72465,-5.69647 c 0.90316,-1.02587 1.63902,-1.87501 1.63523,-1.88698 -0.004,-0.012 -0.66298,-0.74873 -1.46488,-1.63726 l -1.45799,-1.61551 -0.007,1.74181 -0.007,1.74181 h -1.98095 -1.98095 l -0.0349,-0.23241 c -0.12339,-0.82087 -0.59341,-1.60783 -1.29443,-2.16729 -1.26016,-1.00569 -3.42332,-1.34715 -5.39636,-0.85184 -1.92505,0.48327 -2.961846,1.13784 -3.023746,1.90902 -0.0401,0.4992 0.34362,1.07203 1.100126,1.64239 0.35974,0.27123 0.59858,0.38546 0.99165,0.47428 0.34529,0.078 1.01593,0.16701 1.59002,0.21099 0.81418,0.0624 2.52384,0.0893 3.76014,0.0593 1.3259,-0.0322 1.58582,-0.0183 2.3823,0.12734 1.79508,0.3283 2.77178,0.94318 3.41623,2.15067 0.0584,0.10941 0.11174,0.19892 0.11855,0.19892 0.007,0 0.75134,-0.83935 1.65451,-1.86521 z m -18.643116,-0.86735 c 0.10045,-0.572 0.24698,-1.02633 0.48151,-1.49295 0.55934,-1.11285 1.52011,-2.03588 2.75665,-2.64834 l 0.39774,-0.197 -1.29563,0.002 -1.29562,0.002 -1.54939,1.64514 c -0.852167,0.90482 -1.549393,1.6602 -1.549393,1.67861 0,0.0184 0.443689,0.53768 0.985976,1.15394 l 0.985977,1.12046 0.0176,-0.49833 c 0.01,-0.27408 0.0387,-0.61876 0.0646,-0.76595 z m 14.793576,-2.85908 c 0.23116,-0.13488 0.41028,-0.38044 0.50365,-0.69043 0.053,-0.17608 0.0885,-0.70017 0.051,-0.75392 -0.0194,-0.0278 -0.25326,-0.0339 -1.0687,-0.0282 l -1.04391,0.007 0.35139,0.39439 c 0.42215,0.47381 0.67604,0.78509 0.83099,1.01882 0.12877,0.19424 0.13113,0.19456 0.37556,0.0519 z"
       id="path882"
       inkscape:connector-curvature="0" />
    <flowRoot
       xml:space="preserve"
       id="flowRoot826"
       style="font-style:normal;font-weight:normal;font-size:40px;line-height:1.25;font-family:sans-serif;letter-spacing:0px;word-spacing:0px;fill:#ff0000;fill-opacity:1;stroke:#000000;stroke-width:1.88976383;stroke-miterlimit:4;stroke-dasharray:none;stroke-opacity:1"
       transform="matrix(0.26458333,0,0,0.26458333,19.644309,191.63602)"><flowRegion
         id="flowRegion828"
         style="fill:#ff0000;stroke:#000000;stroke-width:1.88976383;stroke-miterlimit:4;stroke-dasharray:none;stroke-opacity:1"><rect
           id="rect830"
           width="182.37956"
           height="109.81182"
           x="-19.192898"
           y="251.24889"
           style="fill:#ff0000;stroke:#000000;stroke-width:1.88976383;stroke-miterlimit:4;stroke-dasharray:none;stroke-opacity:1" /></flowRegion><flowPara
         id="flowPara832"
         style="font-style:normal;font-variant:normal;font-weight:bold;font-stretch:normal;font-size:85.33333588px;font-family:roboto;-inkscape-font-specification:roboto;fill:#ff0000;stroke:#000000;stroke-width:1.88976383;stroke-miterlimit:4;stroke-dasharray:none;stroke-opacity:1">60+;</flowPara></flowRoot>    <flowRoot
       xml:space="preserve"
       id="flowRoot826-7"
       style="font-style:normal;font-weight:normal;font-size:40px;line-height:1.25;font-family:sans-serif;letter-spacing:0px;word-spacing:0px;fill:#ff0000;fill-opacity:1;stroke:#000000;stroke-width:1.88976383;stroke-miterlimit:4;stroke-dasharray:none;stroke-opacity:1"
       transform="matrix(0.26458333,0,0,0.26458333,94.645732,191.46996)"><flowRegion
         id="flowRegion828-2"
         style="fill:#ff0000;stroke:#000000;stroke-width:1.88976383;stroke-miterlimit:4;stroke-dasharray:none;stroke-opacity:1"><rect
           id="rect830-7"
           width="179.80724"
           height="131.31982"
           x="-19.192898"
           y="251.24889"
           style="fill:#ff0000;stroke:#000000;stroke-width:1.88976383;stroke-miterlimit:4;stroke-dasharray:none;stroke-opacity:1" /></flowRegion><flowPara
         id="flowPara832-2"
         style="font-style:normal;font-variant:normal;font-weight:bold;font-stretch:normal;font-size:85.33333588px;font-family:roboto;-inkscape-font-specification:roboto;fill:#ff0000;stroke:#000000;stroke-width:1.88976383;stroke-miterlimit:4;stroke-dasharray:none;stroke-opacity:1">Ego.</flowPara></flowRoot>  </g>
</svg>
