<?xml version="1.0" encoding="UTF-8" standalone="no"?>
<!-- Created with Inkscape (http://www.inkscape.org/) -->

<svg
   xmlns:dc="http://purl.org/dc/elements/1.1/"
   xmlns:cc="http://creativecommons.org/ns#"
   xmlns:rdf="http://www.w3.org/1999/02/22-rdf-syntax-ns#"
   xmlns:svg="http://www.w3.org/2000/svg"
   xmlns="http://www.w3.org/2000/svg"
   xmlns:sodipodi="http://sodipodi.sourceforge.net/DTD/sodipodi-0.dtd"
   xmlns:inkscape="http://www.inkscape.org/namespaces/inkscape"
   width="1000"
   height="1000"
   viewBox="0 0 264.58336 264.58333"
   version="1.1"
   id="svg8"
   inkscape:version="0.92.3 (2405546, 2018-03-11)"
   sodipodi:docname="60-ego_v0.3.svg">
  <defs
     id="defs2" />
  <sodipodi:namedview
     id="base"
     pagecolor="#ffffff"
     bordercolor="#666666"
     borderopacity="1.0"
     inkscape:pageopacity="0.0"
     inkscape:pageshadow="2"
     inkscape:zoom="0.98994949"
     inkscape:cx="365.34103"
     inkscape:cy="166.50705"
     inkscape:document-units="mm"
     inkscape:current-layer="layer3"
     showgrid="false"
     units="px"
     inkscape:window-width="1920"
     inkscape:window-height="986"
     inkscape:window-x="2509"
     inkscape:window-y="-11"
     inkscape:window-maximized="1" />
  <metadata
     id="metadata5">
    <rdf:RDF>
      <cc:Work
         rdf:about="">
        <dc:format>image/svg+xml</dc:format>
        <dc:type
           rdf:resource="http://purl.org/dc/dcmitype/StillImage" />
        <dc:title></dc:title>
      </cc:Work>
    </rdf:RDF>
  </metadata>
  <g
     inkscape:groupmode="layer"
     id="layer2"
     inkscape:label="background"
     transform="translate(0,54.583323)">
    <rect
       style="opacity:0.96799999;fill:#ffea00;fill-opacity:1;stroke:#000000;stroke-width:0.89836878;stroke-miterlimit:4;stroke-dasharray:none;stroke-dashoffset:0;stroke-opacity:1"
       id="rect885"
       width="240.0703"
       height="65.535461"
       x="13.963019"
       y="133.50935"
       rx="32.767731"
       ry="32.767731"
       inkscape:export-xdpi="96"
       inkscape:export-ydpi="96" />
    <path
       style="opacity:0.96799999;fill:#000000;fill-opacity:1;stroke:#000000;stroke-width:0.89836878;stroke-miterlimit:4;stroke-dasharray:none;stroke-dashoffset:0;stroke-opacity:1"
       d="m 120.81408,133.50935 h 100.45151 c 18.15332,0 32.76773,14.61441 32.76773,32.76773 0,18.15333 -14.61441,32.76774 -32.76773,32.76774 H 120.81408 c 24.87208,-18.18954 25.47791,-52.6993 0,-65.53547 z"
       id="rect885-2"
       inkscape:connector-curvature="0"
       sodipodi:nodetypes="cssscc"
       inkscape:export-xdpi="96"
       inkscape:export-ydpi="96" />
  </g>
  <g
     inkscape:label="text"
     inkscape:groupmode="layer"
     id="layer1"
     transform="translate(0,-32.416677)">
    <path
       style="fill:#ff0000;stroke:#fc0000;stroke-width:0.60000002;stroke-miterlimit:4;stroke-dasharray:none;stroke-opacity:1"
       d="m 158.89808,252.95518 c -3.77736,-4.29632 -7.87004,-8.94902 -9.09487,-10.33936 l -2.22694,-2.52788 3.23327,-3.23758 3.23327,-3.23757 11.69711,8.5e-4 11.69714,8.5e-4 3.29388,3.2292 3.29388,3.22918 -0.69257,0.78607 c -0.38091,0.43235 -4.47522,5.08844 -9.09846,10.3469 -4.62325,5.25845 -8.41983,9.56081 -8.43686,9.56081 -0.017,0 -3.12151,-3.51516 -6.89885,-7.81147 z m 9.35537,1.53771 c 1.29122,-1.46553 2.37091,-2.69701 2.39933,-2.73663 0.0488,-0.068 0.043,-0.0675 -0.10165,0.007 -0.42833,0.21853 -1.34957,0.38564 -2.55143,0.46286 -1.30546,0.0839 -3.88638,0.003 -6.01009,-0.18746 -0.39174,-0.0352 -0.7079,-0.0523 -0.70259,-0.038 0.028,0.0755 4.56396,5.19154 4.58906,5.17603 0.0163,-0.0108 1.08619,-1.21745 2.37741,-2.68297 z m 0.05,-4.20795 c 1.03046,-0.0991 2.00551,-0.28857 2.74358,-0.5331 0.46102,-0.15274 1.04991,-0.4267 1.28203,-0.59638 1.21987,-0.89182 0.75233,-1.71154 -1.22786,-2.15277 -1.36773,-0.30476 -3.07144,-0.43058 -7.7538,-0.5726 -3.33001,-0.10097 -4.766,-0.22349 -6.28443,-0.53598 -0.46928,-0.0965 -1.27379,-0.32363 -1.41556,-0.3995 -0.04,-0.0214 -0.0804,-0.0315 -0.0895,-0.0224 -0.0212,0.0212 3.4112,3.93302 3.45414,3.93654 0.0177,0.001 0.16551,-0.1212 0.32866,-0.27271 0.36514,-0.33895 0.80296,-0.60761 1.24246,-0.7624 0.32166,-0.11324 0.35627,-0.11756 0.96032,-0.11702 0.57508,5.3e-4 0.65474,0.009 0.96842,0.10529 0.88454,0.27093 2.00447,0.99259 2.6964,1.73748 0.13373,0.14398 0.22919,0.21207 0.32282,0.23028 0.19398,0.0378 2.26156,0.004 2.77234,-0.0447 z m 10.41373,-7.67951 c 1.21757,-1.38299 2.20959,-2.52773 2.20448,-2.54387 -0.005,-0.0162 -0.89377,-1.00938 -1.97483,-2.20722 l -1.96554,-2.17789 -0.009,2.34816 -0.009,2.34816 h -2.67055 -2.67056 l -0.047,-0.31331 c -0.16634,-1.10663 -0.79998,-2.16755 -1.74504,-2.92176 -1.69884,-1.35579 -4.61503,-1.81612 -7.27492,-1.14838 -2.59519,0.6515 -3.99291,1.53394 -4.07636,2.57358 -0.0541,0.67298 0.46324,1.44522 1.48309,2.21413 0.48498,0.36565 0.80696,0.51965 1.33686,0.63939 0.4655,0.10515 1.3696,0.22515 2.14354,0.28444 1.09761,0.0841 3.40243,0.12038 5.0691,0.0799 1.78747,-0.0434 2.13788,-0.0247 3.21162,0.17167 2.41998,0.44259 3.73669,1.27152 4.60548,2.89935 0.0787,0.1475 0.15064,0.26817 0.15982,0.26817 0.009,0 1.01289,-1.13154 2.23047,-2.51452 z m -25.13309,-1.16929 c 0.13542,-0.77112 0.33296,-1.38361 0.64913,-2.01267 0.75406,-1.50025 2.04929,-2.7446 3.71629,-3.57027 l 0.5362,-0.26558 -1.74666,0.003 -1.74665,0.003 -2.08876,2.21784 c -1.14882,1.21981 -2.08877,2.23815 -2.08877,2.26296 0,0.0248 0.59815,0.72486 1.32922,1.55565 l 1.32921,1.51051 0.0237,-0.67181 c 0.0135,-0.36949 0.0522,-0.83416 0.0871,-1.03259 z m 19.94346,-3.85437 c 0.31163,-0.18184 0.55311,-0.51288 0.67898,-0.93078 0.0714,-0.23738 0.11931,-0.94391 0.0688,-1.01638 -0.0262,-0.0375 -0.34142,-0.0457 -1.44073,-0.038 l -1.40731,0.009 0.47371,0.53169 c 0.56911,0.63875 0.91138,1.05839 1.12028,1.37349 0.17359,0.26185 0.17677,0.26229 0.50629,0.07 z"
       id="path882"
       inkscape:connector-curvature="0"
       inkscape:export-xdpi="96"
       inkscape:export-ydpi="96" />
    <flowRoot
       xml:space="preserve"
       id="flowRoot826"
       style="font-style:normal;font-weight:normal;font-size:40px;line-height:1.25;font-family:sans-serif;letter-spacing:0px;word-spacing:0px;fill:#ff0000;fill-opacity:1;stroke:#000000;stroke-width:1.88976383;stroke-miterlimit:4;stroke-dasharray:none;stroke-opacity:1"
       transform="matrix(0.40970409,0,0,0.40970409,50.138263,123.10917)"
       inkscape:export-xdpi="96"
       inkscape:export-ydpi="96"><flowRegion
         id="flowRegion828"
         style="fill:#ff0000;stroke:#000000;stroke-width:1.88976383;stroke-miterlimit:4;stroke-dasharray:none;stroke-opacity:1"><rect
           id="rect830"
           width="182.37956"
           height="109.81182"
           x="-19.192898"
           y="251.24889"
           style="fill:#ff0000;stroke:#000000;stroke-width:1.88976383;stroke-miterlimit:4;stroke-dasharray:none;stroke-opacity:1" /></flowRegion><flowPara
         id="flowPara832"
         style="font-style:normal;font-variant:normal;font-weight:bold;font-stretch:normal;font-size:85.33333588px;font-family:roboto;-inkscape-font-specification:roboto;fill:#ff0000;stroke:#000000;stroke-width:1.88976383;stroke-miterlimit:4;stroke-dasharray:none;stroke-opacity:1">60+;</flowPara></flowRoot>    <flowRoot
       xml:space="preserve"
       id="flowRoot826-7"
       style="font-style:normal;font-weight:normal;font-size:40px;line-height:1.25;font-family:sans-serif;letter-spacing:0px;word-spacing:0px;fill:#ff0000;fill-opacity:1;stroke:#fc0000;stroke-width:1.68213654;stroke-miterlimit:4;stroke-dasharray:none;stroke-opacity:1"
       transform="matrix(0.35668923,0,0,0.35668923,192.76082,139.4286)"
       inkscape:export-xdpi="96"
       inkscape:export-ydpi="96"><flowRegion
         id="flowRegion828-2"
         style="fill:#ff0000;stroke:#fc0000;stroke-width:1.68213654;stroke-miterlimit:4;stroke-dasharray:none;stroke-opacity:1"><rect
           id="rect830-7"
           width="179.80724"
           height="131.31982"
           x="-19.192898"
           y="251.24889"
           style="fill:#ff0000;stroke:#fc0000;stroke-width:1.68213654;stroke-miterlimit:4;stroke-dasharray:none;stroke-opacity:1" /></flowRegion><flowPara
         id="flowPara832-2"
         style="font-style:normal;font-variant:normal;font-weight:bold;font-stretch:normal;font-size:85.33333588px;font-family:roboto;-inkscape-font-specification:roboto;fill:#ff0000;stroke:#fc0000;stroke-width:1.68213654;stroke-miterlimit:4;stroke-dasharray:none;stroke-opacity:1">Ego.</flowPara></flowRoot>  </g>
  <g
     inkscape:groupmode="layer"
     id="layer3"
     inkscape:label="artifacts">
    <path
       style="fill:#000000;stroke:#080808;stroke-width:10;stroke-linecap:round;stroke-linejoin:miter;stroke-miterlimit:4;stroke-dasharray:none;stroke-opacity:1"
       d="m 96.484298,244.80539 c -60.151349,-0.44701 -52.334526,1.97341 -62.2738,-4.54359"
       id="path923"
       inkscape:connector-curvature="0"
       sodipodi:nodetypes="cc"
       inkscape:export-xdpi="96"
       inkscape:export-ydpi="96" />
  </g>
</svg>
